Coordinates
version=1
nRows=16
nColumns=22
inDegrees=yes

Units are S.I. units (second, meters, Newtons, ...)
If the header above contains a line with 'inDegrees', this indicates whether rotational values are in degrees (yes) or radians (no).

endheader
time	pelvis_tilt	pelvis_list	pelvis_rotation	pelvis_tx	pelvis_ty	pelvis_tz	hip_flexion_r	hip_adduction_r	hip_rotation_r	knee_angle_r	ankle_angle_r	subtalar_angle_r	hip_flexion_l	hip_adduction_l	hip_rotation_l	knee_angle_l	ankle_angle_l	subtalar_angle_l	lumbar_extension	lumbar_bending	lumbar_rotation
      0.01000000	      2.53999938	     -0.81322212	      0.18246946	     -1.62840094	      1.08280731	     -0.33071571	     -3.67596398	      1.95507685	     -5.70032681	    -10.29848728	     11.56881056	     -2.85540583	     -3.14987854	     -0.19423096	     -4.49337281	    -12.43259950	     13.51150027	     -1.58833598	     -4.08867840	     -1.13034104	     -5.60534496
      0.02000000	      2.54409025	     -0.82526760	      0.17232801	     -1.62844441	      1.08281826	     -0.33064253	     -3.69042096	      1.97212993	     -5.68412290	    -10.27272576	     11.55622045	     -2.85806111	     -3.14844075	     -0.21088742	     -4.51165596	    -12.44087393	     13.51732463	     -1.58880503	     -4.08120058	     -1.11200248	     -5.60388865
      0.03000000	      2.54840634	     -0.82338826	      0.16178966	     -1.62851111	      1.08282899	     -0.33056563	     -3.69230873	      1.97211144	     -5.68483232	    -10.27025288	     11.55509521	     -2.85829749	     -3.14906530	     -0.21130604	     -4.51117425	    -12.44388269	     13.51723487	     -1.58870159	     -4.07624873	     -1.10846894	     -5.60635827
      0.04000000	      2.55107938	     -0.82739894	      0.14718096	     -1.62854931	      1.08284062	     -0.33046918	     -3.70815836	      1.98090407	     -5.66902641	    -10.23947441	     11.54102330	     -2.86037201	     -3.15116492	     -0.22051122	     -4.53863044	    -12.44281049	     13.51640129	     -1.58762003	     -4.06313159	     -1.09916184	     -5.60613682
      0.05000000	      2.55520429	     -0.82570345	      0.13396236	     -1.62862127	      1.08284883	     -0.33038298	     -3.71105531	      1.98122055	     -5.66933275	    -10.23448406	     11.53970731	     -2.86069890	     -3.15136617	     -0.22103492	     -4.53851271	    -12.44600477	     13.51593278	     -1.58729749	     -4.05803802	     -1.09399598	     -5.60752588
      0.06000000	      2.56077670	     -0.84123596	      0.10643084	     -1.62865759	      1.08286634	     -0.33025997	     -3.73620495	      2.00375344	     -5.61878041	    -10.19067694	     11.50626217	     -2.86604447	     -3.15797710	     -0.24297692	     -4.58338153	    -12.44553328	     13.51470989	     -1.58151998	     -4.04963637	     -1.07033396	     -5.58852363
      0.07000000	      2.56134784	     -0.84109415	      0.09282578	     -1.62869203	      1.08286792	     -0.33016720	     -3.74590049	      2.00664743	     -5.62165959	    -10.16857159	     11.50726418	     -2.86767640	     -3.16097708	     -0.24623188	     -4.59504810	    -12.44000140	     13.51730284	     -1.57987327	     -4.03643869	     -1.06477485	     -5.58293230
      0.08000000	      2.56515722	     -0.85036409	      0.07001924	     -1.62872685	      1.08287354	     -0.33004972	     -3.76381716	      2.02171531	     -5.58754269	    -10.13680531	     11.48649287	     -2.87170336	     -3.16538136	     -0.26069724	     -4.62411512	    -12.43999097	     13.51944962	     -1.57240056	     -4.02840646	     -1.04932556	     -5.57056589
      0.09000000	      2.56412619	     -0.84978422	      0.05847436	     -1.62875149	      1.08286805	     -0.32996088	     -3.77272149	      2.02418376	     -5.59165677	    -10.11415330	     11.48786663	     -2.87222783	     -3.16665485	     -0.26342644	     -4.63391005	    -12.43549067	     13.52142571	     -1.57088259	     -4.01459143	     -1.04388221	     -5.56641511
      0.10000000	      2.56276915	     -0.85063788	      0.04612706	     -1.62877389	      1.08286126	     -0.32987660	     -3.78309712	      2.02791031	     -5.58827035	    -10.08872343	     11.48512127	     -2.87186958	     -3.16623693	     -0.26748710	     -4.64536826	    -12.43367903	     13.52274888	     -1.56914034	     -4.00082801	     -1.03547939	     -5.56384722
      0.11000000	      2.56370565	     -0.86278964	      0.02748695	     -1.62879739	      1.08285903	     -0.32975890	     -3.79869316	      2.04657479	     -5.55414298	    -10.05705266	     11.46455296	     -2.86916954	     -3.16635583	     -0.28600837	     -4.67145232	    -12.43698037	     13.52850900	     -1.56258349	     -3.99000877	     -1.01930792	     -5.55425231
      0.12000000	      2.56572949	     -0.86101551	      0.01664689	     -1.62883060	      1.08285438	     -0.32967157	     -3.80241566	      2.04680083	     -5.55756520	    -10.05034440	     11.46576717	     -2.86898305	     -3.16726644	     -0.28701799	     -4.67167431	    -12.43918566	     13.52877467	     -1.56228575	     -3.98252642	     -1.01647767	     -5.55516007
      0.13000000	      2.56189731	     -0.86203608	      0.01045694	     -1.62883023	      1.08284404	     -0.32960294	     -3.81658356	      2.05077064	     -5.56000761	    -10.01502182	     11.46976507	     -2.86706922	     -3.16573936	     -0.29176627	     -4.68681472	    -12.43441589	     13.53124139	     -1.56106693	     -3.96383257	     -1.00841871	     -5.55049134
      0.14000000	      2.56200175	     -0.86817231	      0.00181072	     -1.62883591	      1.08284068	     -0.32951240	     -3.83168077	      2.06177683	     -5.54450889	     -9.98534785	     11.46387087	     -2.86260765	     -3.16465668	     -0.30342413	     -4.70240298	    -12.43826268	     13.53424795	     -1.55817211	     -3.94955529	     -0.99871020	     -5.55046066
      0.15000000	      2.56477226	     -0.86698035	     -0.00719183	     -1.62886805	      1.08284003	     -0.32943792	     -3.83492461	      2.06192049	     -5.54488133	     -9.98155455	     11.46329613	     -2.86210991	     -3.16526501	     -0.30459769	     -4.70197807	    -12.44157695	     13.53434936	     -1.55776533	     -3.94394947	     -0.99482614	     -5.55199341
      0.16000000	      2.56289263	     -0.87057880	     -0.01345470	     -1.62887679	      1.08283802	     -0.32937792	     -3.84958705	      2.06809884	     -5.53765128	     -9.94809868	     11.46046606	     -2.85847540	     -3.16282470	     -0.31169432	     -4.71579639	    -12.44166781	     13.53611558	     -1.55545583	     -3.93046054	     -0.98371992	     -5.55130298
